<?xml version="1.0" encoding="UTF-8"?>
<svg data-bbox="20.754 22.908 274.005 92.272" xmlns="http://www.w3.org/2000/svg" viewBox="0 0 300 150" data-type="ugc">
    <g>
        <linearGradient id="a4e2876e-9a8a-41ad-aa26-f434badc9d1f" gradientUnits="userSpaceOnUse" x1="20.74" y1="69.047" x2="294.756" y2="69.047">
            <stop stop-color="#ffffff" offset="0"/>
            <stop stop-color="#ffbbbb" offset=".199"/>
            <stop stop-color="#ff7a7a" offset=".415"/>
            <stop stop-color="#ff4545" offset=".611"/>
            <stop stop-color="#ff2020" offset=".779"/>
            <stop stop-color="#ff0808" offset=".915"/>
            <stop stop-color="#ff0000" offset="1"/>
        </linearGradient>
        <path fill="url(#a4e2876e-9a8a-41ad-aa26-f434badc9d1f)" d="M21 23.61c.88-.33 5.14-.55 12.04-.66 20.14-.22 49.69.44 71.8 1.75 35.02 2.52 70.92 5.8 104.2 16.75 29.88 11.27 62.6 23.86 80.99 50.35 4.71 6.68 8.21 19.04-1.2 22.98-8.43 2.52-15.54-7.44-20.03-13.79-3.39-4.82-7.22-9.52-11.38-13.68-28.46-29.88-79.79-42.79-120.17-49.69-28.89-4.82-58.01-7.33-87.01-10.29-7.88-.77-23.2-2.08-27.91-2.96-.66-.11-1.09-.22-1.53-.44-.11 0 0-.22.11-.22z"/>
        <path stroke-miterlimit="10" stroke="#000000" d="M29.21 70.24h12.15c7.66 0 13.24 2.74 13.24 9.85s-8.32 14.56-17.29 14.56h-4.93l-2.85 14.23h-8.21l7.77-38.64zm8.76 18.06c5.8 0 8.76-2.74 8.76-7 0-4.27-2.3-4.6-6.46-4.6h-4.05l-2.3 11.6h4.16zm-1.42 4.59 5.91-5.25 8.32 21.23h-8.65l-5.69-16.09z"/>
        <path stroke-miterlimit="10" stroke="#000000" d="M56.68 105.26c0-2.85 2.41-5.91 5.8-5.91s4.16 1.86 4.16 4.49-2.3 5.91-5.8 5.91-4.27-1.86-4.27-4.38z"/>
        <path stroke-miterlimit="10" stroke="#000000" d="m72.88 102.41 5.8-4.6c2.08 2.96 5.25 4.93 8.65 4.93s5.58-1.64 5.58-4.49-1.75-3.06-4.49-4.82l-3.72-2.3c-3.5-2.19-5.8-4.93-5.8-9.63 0-6.68 6.02-12.04 13.68-12.04s8.76 2.3 11.71 5.8l-5.14 4.82c-1.97-2.08-4.16-3.61-7-3.61-2.85 0-4.93 1.97-4.93 4.16s1.86 2.96 4.82 4.82l3.83 2.3c3.72 2.19 5.36 4.71 5.36 9.19 0 7-5.8 12.59-14.67 12.59s-10.07-2.08-13.9-7.22z"/>
        <path stroke-miterlimit="10" stroke="#000000" d="M105.5 105.26c0-2.85 2.41-5.91 5.8-5.91s4.16 1.86 4.16 4.49-2.3 5.91-5.8 5.91-4.27-1.86-4.27-4.38z"/>
        <path stroke-miterlimit="10" stroke="#000000" d="M129.69 77.13h-10.18l1.31-6.79h28.57l-1.31 6.79H137.9l-6.35 31.74h-8.21z"/>
        <path stroke-miterlimit="10" stroke="#000000" d="M159.57 78.77c7 0 9.63 4.93 9.63 11.05s-1.09 5.8-1.53 6.68h-16.86c-.22 4.93 2.74 7 6.68 7s3.94-.99 5.36-2.08l2.85 5.14c-2.41 1.64-6.02 3.06-10.62 3.06-7.11 0-12.04-4.71-12.04-12.59s8.54-18.28 16.42-18.28zm2.62 12.81c.11-.55.22-1.42.22-2.19 0-2.41-.99-4.38-3.94-4.38s-5.69 2.19-7 6.57z"/>
        <path stroke-miterlimit="10" stroke="#000000" d="M172.7 97.49c0-10.18 7.66-18.72 17.4-18.72s6.46 1.75 7.88 3.61l-4.49 4.82c-1.2-1.2-2.3-1.86-3.94-1.86-4.71 0-8.54 5.47-8.54 12.04s1.64 5.8 5.03 5.8 3.39-.99 4.71-1.86l3.39 5.03c-2.19 1.64-5.25 3.39-9.85 3.39-6.57 0-11.49-4.38-11.49-12.15z"/>
        <path stroke-miterlimit="10" stroke="#000000" d="M206.52 67.39h8.1l-2.3 10.84-1.31 4.82h.22c2.63-2.3 5.69-4.16 9.3-4.16s7 2.63 7 7.55-.11 2.74-.44 4.16l-3.72 18.39h-8.1l3.5-17.4c.22-1.2.44-1.97.44-2.85 0-1.97-1.09-3.06-2.96-3.06s-3.61 1.2-6.24 3.83l-3.83 19.37h-8.1l8.32-41.48z"/>
    </g>
</svg>
