<svg width="119" height="49" viewBox="0 0 119 49" fill="none" xmlns="http://www.w3.org/2000/svg">
<path fill-rule="evenodd" clip-rule="evenodd" d="M92.82 48.1329H0V0.459473H92.82V7.61049V48.1329ZM90.7375 2.51208H2.04944V46.0803H90.7375V7.61049V2.51208Z" fill="black"/>
<path d="M12.3297 7.61047L76.3253 16.6155L60.095 41.6771L119 7.61047H12.3297Z" fill="#DA291C"/>
<path d="M22.5769 37.3733C21.0233 37.3733 19.7341 35.8835 20.1969 34.2282L24.0644 19.7937C24.428 18.5026 25.6511 17.079 27.6014 17.079H34.2455C35.7991 17.079 37.0883 18.5688 36.6255 20.2241L32.758 34.6586C32.3944 35.9497 31.1714 37.3733 29.2211 37.3733H22.5769ZM28.5269 33.5992C28.8244 33.5992 29.188 33.4336 29.2872 33.0363L32.4275 21.2835C32.4936 21.0849 32.3283 20.8531 32.13 20.8531H28.2625C27.965 20.8531 27.6014 21.0187 27.5022 21.4159L24.3619 33.1688C24.2958 33.3674 24.4611 33.5992 24.6594 33.5992H28.5269ZM12.9247 17.1121C11.0075 17.1121 9.75135 18.5026 9.38774 19.8268L5.5533 34.2282C5.12358 35.8835 6.37969 37.3733 7.9333 37.3733H14.5775C16.4947 37.3733 17.7508 35.9828 18.1144 34.6586L20.4614 25.9184H13.9494L12.9908 29.527H15.6352L14.7097 33.0363C14.6105 33.4336 14.2469 33.5992 13.9494 33.5992H10.0158C9.78441 33.5992 9.65219 33.4005 9.7183 33.1688L12.8586 21.4159C12.9577 21.0187 13.3214 20.8531 13.6189 20.8531H21.3869L22.3786 17.1121H12.9247ZM41.1872 25.9184L42.3772 21.449C42.4764 21.0518 42.84 20.8862 43.1375 20.8862H47.005C47.2364 20.8862 47.3686 21.0849 47.3025 21.3166L46.2116 25.3887C46.1125 25.786 45.7489 25.9515 45.4514 25.9515H41.1872V25.9184ZM44.8564 37.3733H48.8891L45.7158 29.527H46.1786C48.0958 29.527 49.3519 28.1366 49.7155 26.8123L51.4675 20.2241C51.8972 18.5688 50.6411 17.079 49.0875 17.079H42.4433C40.5261 17.079 39.27 18.4695 38.9064 19.7937L34.2125 37.3402H38.08L40.7575 27.3089L44.8564 37.3733ZM54.8061 30.0899C54.9052 29.6926 55.2689 29.527 55.5664 29.527H62.0783L63.0369 25.9184H55.8969L57.0869 21.449C57.1861 21.0518 57.5497 20.8862 57.8472 20.8862H64.3922L65.3839 17.1452H57.153C55.2358 17.1452 53.9797 18.5357 53.6161 19.8599L49.7486 34.2944C49.3189 35.9497 50.575 37.4395 52.1286 37.4395H60.2602L61.2519 33.6985H54.178C53.9466 33.6985 53.8144 33.4998 53.8805 33.2681L54.8061 30.0899Z" fill="black"/>
</svg>
