<?xml version="1.0" encoding="utf-8"?>
<!-- Generator: Adobe Illustrator 21.0.1, SVG Export Plug-In . SVG Version: 6.00 Build 0)  -->
<svg version="1.1"  xmlns="http://www.w3.org/2000/svg" xmlns:xlink="http://www.w3.org/1999/xlink" x="0px" y="0px" width="600px" height="76px"
	 viewBox="0 0 481.9 61.2" style="enable-background:new 0 0 481.9 61.2;" xml:space="preserve">
<style type="text/css">
	.st0{fill:#FFFFFF;}
	.st1{fill:none;stroke:#FFFFFF;stroke-width:0.5456;stroke-miterlimit:3.8636;}
	.st2{fill:none;stroke:#FFFFFF;stroke-width:0.598;stroke-miterlimit:3.8636;}
</style>
<path d="M28.7,0h424.7c15.6,0,28.5,14.2,28.5,29.8v1.7c0,15.6-12.9,29.8-28.5,29.8H28.7C13.2,61.2,0,47.2,0,31.7v-2.2
	C0,13.9,13.2,0,28.7,0L28.7,0L28.7,0z"/>
<path class="st0" d="M451.5,3.2H389v3.6h62.5c12.8,0,23.3,10.4,23.3,23.3v1.2c0,12.8-10.4,23.3-23.3,23.3H138.7v3.6h312.8
	c14.8,0,26.9-12.1,26.9-26.9v-1.2C478.4,15.2,466.3,3.2,451.5,3.2L451.5,3.2z"/>
<path class="st0" d="M95.5,54.5H30.4c-12.8,0-23.3-10.4-23.3-23.3v-1.2c0-12.8,10.4-23.3,23.3-23.3h314.5V3.2H30.4
	C15.6,3.2,3.5,15.2,3.5,30.1v1.2c0,14.8,12.1,26.9,26.9,26.9h65.1V54.5L95.5,54.5z"/>
<path class="st0" d="M446.1,21.6c-6,0-13.8,0.3-24,0v27h7.5v-8.1c6.7,0,9.5,0,16.5,0c3.3,0,5.9-4.3,6.3-8.4
	C452.8,27.4,449.7,21.6,446.1,21.6L446.1,21.6z M442.5,33.9h-12.9v-4.8h12.6c1.3,0,2.4,1.1,2.4,2.4
	C444.6,32.8,443.7,33.7,442.5,33.9L442.5,33.9z"/>
<path class="st1" d="M446.1,21.6c-6,0-13.8,0.3-24,0v27h7.5v-8.1c6.7,0,9.5,0,16.5,0c3.3,0,5.9-4.3,6.3-8.4
	C452.8,27.4,449.7,21.6,446.1,21.6L446.1,21.6z M442.5,33.9h-12.9v-4.8h12.6c1.3,0,2.4,1.1,2.4,2.4
	C444.6,32.8,443.7,33.7,442.5,33.9L442.5,33.9z"/>
<path class="st0" d="M413.4,21.6c-6,0-13.5,0.3-23.7,0v27h7.5v-8.1c6.5,0,9.3,0,16.5,0c3.3,0,5.9-4.3,6.3-8.4
	C420.5,27.3,417.3,21.6,413.4,21.6L413.4,21.6z M409.8,33.9h-12.6v-4.8h12.3c1.4,0,2.7,1,2.7,2.4C412.3,32.8,411.2,33.9,409.8,33.9
	L409.8,33.9z"/>
<path class="st1" d="M413.4,21.6c-6,0-13.5,0.3-23.7,0v27h7.5v-8.1c6.5,0,9.3,0,16.5,0c3.3,0,5.9-4.3,6.3-8.4
	C420.5,27.3,417.3,21.6,413.4,21.6L413.4,21.6z M409.8,33.9h-12.6v-4.8h12.3c1.4,0,2.7,1,2.7,2.4C412.3,32.8,411.2,33.9,409.8,33.9
	L409.8,33.9z"/>
<polygon class="st0" points="358.6,21.9 358.6,48.6 387.1,48.6 387.1,42 366.7,42 366.7,37.8 385,37.8 385,32.1 366.7,32.1 
	366.7,28.2 387.1,28.2 387.1,21.9 358.6,21.9 "/>
<polygon class="st1" points="358.6,21.9 358.6,48.6 387.1,48.6 387.1,42 366.7,42 366.7,37.8 385,37.8 385,32.1 366.7,32.1 
	366.7,28.2 387.1,28.2 387.1,21.9 358.6,21.9 "/>
<polygon class="st0" points="331.4,21.9 331.4,48.6 356.9,48.6 356.9,41.4 339.2,41.4 339.2,21.9 331.4,21.9 "/>
<polygon class="st1" points="331.4,21.9 331.4,48.6 356.9,48.6 356.9,41.4 339.2,41.4 339.2,21.9 331.4,21.9 "/>
<polygon class="st0" points="295.1,21.6 295.1,48.6 303.2,48.6 303.2,39.6 320.6,39.6 320.6,48.6 328.1,48.6 328.1,21.6 320.6,21.6 
	320.6,31.5 303.2,31.5 303.2,21.6 295.1,21.6 "/>
<polygon class="st1" points="295.1,21.6 295.1,48.6 303.2,48.6 303.2,39.6 320.6,39.6 320.6,48.6 328.1,48.6 328.1,21.6 320.6,21.6 
	320.6,31.5 303.2,31.5 303.2,21.6 295.1,21.6 "/>
<path class="st0" d="M285.6,39.2c-0.6,1.9-2.4,3.3-4.5,3.3h-8.7c-2.6,0-4.7-2.1-4.7-4.7v-4.5c0-2.6,2.1-4.7,4.7-4.7h8.7
	c2.2,0,4,1.5,4.5,3.5h7v-3.8c0-3.4-2.8-6.2-6.2-6.2h-20.1c-3.4,0-6.2,2.8-6.2,6.2v14.2c0,3.4,2.8,6.2,6.2,6.2h20.1
	c3.4,0,6.2-2.8,6.2-6.2v-3.3H285.6L285.6,39.2z"/>
<path class="st2" d="M285.6,39.2c-0.6,1.9-2.4,3.3-4.5,3.3h-8.7c-2.6,0-4.7-2.1-4.7-4.7v-4.5c0-2.6,2.1-4.7,4.7-4.7h8.7
	c2.2,0,4,1.5,4.5,3.5h7v-3.8c0-3.4-2.8-6.2-6.2-6.2h-20.1c-3.4,0-6.2,2.8-6.2,6.2v14.2c0,3.4,2.8,6.2,6.2,6.2h20.1
	c3.4,0,6.2-2.8,6.2-6.2v-3.3H285.6L285.6,39.2z"/>
<path class="st0" d="M255.9,22.8c0.7-3.2,1.5-6.6-0.9-8.4c-3-2.7-11.4-3.9-18.9-3.9c-11.4,0-15.6,0.6-18.9,2.7
	c-2.7,2.4-3.3,5.6-3.3,9.6c0,3.8,0.6,6.9,3,9.3c2.4,2.1,9.6,1.8,18.9,1.8c3.6,0.3,5.4,0.3,8.4,0.9c1.2,0,2.7,1.2,2.7,2.7
	c0,1.3-1.1,2.4-2.4,2.4c-5.7,0-10.8,0.3-15.6,0c-4.2,0-3.1-1.9-4.5-3.6h-10.5c-1.5,6,2.1,12.3,7.5,12.3c9.9,0,16.8,0,26.2,0
	c6-0.6,10.5-3.3,10.2-11.7c0-6-0.9-10.8-10.2-11.4c-4.2-0.3-3.6-0.3-11.7-0.3c-1.8-0.3-11.1,1.2-11.1-3.3c0.3-3,6.9-2.7,11.4-2.7
	c10.2,0.3,9.3,1.2,10.8,3.6C249.3,22.8,255.9,22.8,255.9,22.8L255.9,22.8L255.9,22.8z"/>
<path class="st1" d="M255.9,22.8c0.7-3.2,1.5-6.6-0.9-8.4c-3-2.7-11.4-3.9-18.9-3.9c-11.4,0-15.6,0.6-18.9,2.7
	c-2.7,2.4-3.3,5.6-3.3,9.6c0,3.8,0.6,6.9,3,9.3c2.4,2.1,9.6,1.8,18.9,1.8c3.6,0.3,5.4,0.3,8.4,0.9c1.2,0,2.7,1.2,2.7,2.7
	c0,1.3-1.1,2.4-2.4,2.4c-5.7,0-10.8,0.3-15.6,0c-4.2,0-3.1-1.9-4.5-3.6h-10.5c-1.5,6,2.1,12.3,7.5,12.3c9.9,0,16.8,0,26.2,0
	c6-0.6,10.5-3.3,10.2-11.7c0-6-0.9-10.8-10.2-11.4c-4.2-0.3-3.6-0.3-11.7-0.3c-1.8-0.3-11.1,1.2-11.1-3.3c0.3-3,6.9-2.7,11.4-2.7
	c10.2,0.3,9.3,1.2,10.8,3.6C249.3,22.8,255.9,22.8,255.9,22.8L255.9,22.8L255.9,22.8z"/>
<polygon class="st0" points="186.6,21.9 186.6,48.6 212.1,48.6 212.1,41.4 194.4,41.4 194.4,21.9 186.6,21.9 "/>
<polygon class="st1" points="186.6,21.9 186.6,48.6 212.1,48.6 212.1,41.4 194.4,41.4 194.4,21.9 186.6,21.9 "/>
<polygon class="st0" points="155.5,21.9 155.5,48.6 183.6,48.6 183.6,42 163.6,42 163.6,37.8 181.8,37.8 181.8,32.1 163.6,32.1 
	163.6,28.2 183.6,28.2 183.6,21.9 155.5,21.9 "/>
<polygon class="st1" points="155.5,21.9 155.5,48.6 183.6,48.6 183.6,42 163.6,42 163.6,37.8 181.8,37.8 181.8,32.1 163.6,32.1 
	163.6,28.2 183.6,28.2 183.6,21.9 155.5,21.9 "/>
<path class="st0" d="M150.1,34.8c2.7-2.2,3.5-5.5,2.1-8.7c-1-2.3-2.4-3.6-4.8-4.2h-27.1v24.4l-13.2-24.4H95.6L81.8,48.6h9.3l2.7-5.4
	h15.5l2.9,5.4h8.1h1.2h5.4h1.5h16.3c4.1,0.3,7.8-2.3,8.4-6.3C153.6,39.2,152.6,36.7,150.1,34.8L150.1,34.8z M96.2,37.5l5.1-9.3
	l4.9,9.3H96.2L96.2,37.5z M128.4,28.5h12.9c0.9,0,3,0.4,3,1.8c0,1.5-1.5,1.8-3.3,1.8h-12.6V28.5L128.4,28.5z M142.9,41.7h-14.4v-3.6
	h14.4c1.2,0,2.2,0.4,2.4,1.5C145.5,40.8,144.1,41.7,142.9,41.7L142.9,41.7z"/>
<path class="st1" d="M150.1,34.8c2.7-2.2,3.5-5.5,2.1-8.7c-1-2.3-2.4-3.6-4.8-4.2h-27.1v24.4l-13.2-24.4H95.6L81.8,48.6h9.3l2.7-5.4
	h15.5l2.9,5.4h8.1h1.2h5.4h1.5h16.3c4.1,0.3,7.8-2.3,8.4-6.3C153.6,39.2,152.6,36.7,150.1,34.8L150.1,34.8z M96.2,37.5l5.1-9.3
	l4.9,9.3H96.2L96.2,37.5z M128.4,28.5h12.9c0.9,0,3,0.4,3,1.8c0,1.5-1.5,1.8-3.3,1.8h-12.6V28.5L128.4,28.5z M142.9,41.7h-14.4v-3.6
	h14.4c1.2,0,2.2,0.4,2.4,1.5C145.5,40.8,144.1,41.7,142.9,41.7L142.9,41.7z"/>
<polygon class="st0" points="31.8,11 42.9,11 42.9,25.2 48.6,25.2 64.5,11 79.8,11 59.7,30 80.1,48.6 64.2,48.6 48.6,34.8 
	42.9,34.8 42.9,48.6 31.8,48.6 31.8,11 "/>
<polygon class="st1" points="31.8,11 42.9,11 42.9,25.2 48.6,25.2 64.5,11 79.8,11 59.7,30 80.1,48.6 64.2,48.6 48.6,34.8 
	42.9,34.8 42.9,48.6 31.8,48.6 31.8,11 "/>
</svg>
